# xmcd CD database file
#
# Track frame offsets:
#	150
#	17752
#	33805
#	51392
#
# Disc length: 897 seconds
#
# Revision: 0
# Processed by: cddbd v1.5PL3 Copyright (c) Steve Scherf et al.
# Submitted via: CDex 1.50beta8
#
DISCID=29037f04
DTITLE=沢城みゆき・山崎雅美・鮭延未可 - コジョピーのうた
DYEAR=2002
DGENRE=Anime
TTITLE0=コジョピーのうた
TTITLE1=ぽかぽかコジョハー
TTITLE2=コジョピーのうた（オリジナル・カラオケ）
TTITLE3=ぽかぽかコジョハー（オリジナル・カラオケ）
EXTD=YEAR: 2002
EXTT0=
EXTT1=
EXTT2=
EXTT3=
PLAYORDER=
